<svg xmlns="http://www.w3.org/2000/svg" xmlns:xlink="http://www.w3.org/1999/xlink" width="960" height="480" class="svglite" viewBox="0 0 720 360"><defs><style type="text/css">.svglite polyline,.svglite rect{fill:none;stroke:#000;stroke-linecap:round;stroke-linejoin:round;stroke-miterlimit:10}.svglite text{white-space:pre}</style></defs><rect width="100%" height="100%" style="stroke:none;fill:#fff"/><defs><clipPath id="cpMC4wMHw3MjAuMDB8MC4wMHwzNjAuMDA="><rect width="720" height="360" x="0" y="0"/></clipPath></defs><g clip-path="url(#cpMC4wMHw3MjAuMDB8MC4wMHwzNjAuMDA=)"><rect width="720" height="360" x="0" y="0" style="stroke-width:1.07;stroke:#fff;fill:#fff"/></g><defs><clipPath id="cpMzMuMjR8NjQ1LjUyfDUuNDh8MzI4LjI3"><rect width="612.28" height="322.79" x="33.24" y="5.48"/></clipPath></defs><g clip-path="url(#cpMzMuMjR8NjQ1LjUyfDUuNDh8MzI4LjI3)"><rect width="612.28" height="322.79" x="33.24" y="5.48" style="stroke-width:1.07;stroke:none;fill:#ebebeb"/><polyline points="33.24 275.98 645.52 275.98" style="stroke-width:.53;stroke:#fff;stroke-linecap:butt"/><polyline points="33.24 200.74 645.52 200.74" style="stroke-width:.53;stroke:#fff;stroke-linecap:butt"/><polyline points="33.24 125.49 645.52 125.49" style="stroke-width:.53;stroke:#fff;stroke-linecap:butt"/><polyline points="33.24 50.25 645.52 50.25" style="stroke-width:.53;stroke:#fff;stroke-linecap:butt"/><polyline points="33.24 313.6 645.52 313.6" style="stroke-width:1.07;stroke:#fff;stroke-linecap:butt"/><polyline points="33.24 238.36 645.52 238.36" style="stroke-width:1.07;stroke:#fff;stroke-linecap:butt"/><polyline points="33.24 163.11 645.52 163.11" style="stroke-width:1.07;stroke:#fff;stroke-linecap:butt"/><polyline points="33.24 87.87 645.52 87.87" style="stroke-width:1.07;stroke:#fff;stroke-linecap:butt"/><polyline points="33.24 12.63 645.52 12.63" style="stroke-width:1.07;stroke:#fff;stroke-linecap:butt"/><polyline points="148.04 328.27 148.04 5.48" style="stroke-width:1.07;stroke:#fff;stroke-linecap:butt"/><polyline points="339.38 328.27 339.38 5.48" style="stroke-width:1.07;stroke:#fff;stroke-linecap:butt"/><polyline points="530.72 328.27 530.72 5.48" style="stroke-width:1.07;stroke:#fff;stroke-linecap:butt"/><rect width="172.2" height="60.19" x="61.94" y="148.07" style="stroke-width:1.07;stroke:none;stroke-linecap:butt;stroke-linejoin:miter;fill:#f8766d"/><rect width="172.2" height="7.52" x="253.28" y="275.98" style="stroke-width:1.07;stroke:none;stroke-linecap:butt;stroke-linejoin:miter;fill:#f8766d"/><rect width="172.2" height="240.78" x="444.62" y="20.15" style="stroke-width:1.07;stroke:none;stroke-linecap:butt;stroke-linejoin:miter;fill:#f8766d"/><rect width="172.2" height="105.34" x="61.94" y="208.26" style="stroke-width:1.07;stroke:none;stroke-linecap:butt;stroke-linejoin:miter;fill:#00bfc4"/><rect width="172.2" height="30.1" x="253.28" y="283.5" style="stroke-width:1.07;stroke:none;stroke-linecap:butt;stroke-linejoin:miter;fill:#00bfc4"/><rect width="172.2" height="52.67" x="444.62" y="260.93" style="stroke-width:1.07;stroke:none;stroke-linecap:butt;stroke-linejoin:miter;fill:#00bfc4"/></g><g clip-path="url(#cpMC4wMHw3MjAuMDB8MC4wMHwzNjAuMDA=)"><polyline points="33.24 328.27 33.24 5.48" style="stroke-width:4.27;stroke-linecap:butt"/><text x="28.31" y="316.75" lengthAdjust="spacingAndGlyphs" text-anchor="end" style="font-size:8.8px;fill:#4d4d4d;font-family:&quot;Arial&quot;" textLength="4.9">0</text><text x="28.31" y="241.51" lengthAdjust="spacingAndGlyphs" text-anchor="end" style="font-size:8.8px;fill:#4d4d4d;font-family:&quot;Arial&quot;" textLength="9.79">10</text><text x="28.31" y="166.26" lengthAdjust="spacingAndGlyphs" text-anchor="end" style="font-size:8.8px;fill:#4d4d4d;font-family:&quot;Arial&quot;" textLength="9.79">20</text><text x="28.31" y="91.02" lengthAdjust="spacingAndGlyphs" text-anchor="end" style="font-size:8.8px;fill:#4d4d4d;font-family:&quot;Arial&quot;" textLength="9.79">30</text><text x="28.31" y="15.78" lengthAdjust="spacingAndGlyphs" text-anchor="end" style="font-size:8.8px;fill:#4d4d4d;font-family:&quot;Arial&quot;" textLength="9.79">40</text><polyline points="30.5 313.6 33.24 313.6" style="stroke-width:1.07;stroke:#333;stroke-linecap:butt"/><polyline points="30.5 238.36 33.24 238.36" style="stroke-width:1.07;stroke:#333;stroke-linecap:butt"/><polyline points="30.5 163.11 33.24 163.11" style="stroke-width:1.07;stroke:#333;stroke-linecap:butt"/><polyline points="30.5 87.87 33.24 87.87" style="stroke-width:1.07;stroke:#333;stroke-linecap:butt"/><polyline points="30.5 12.63 33.24 12.63" style="stroke-width:1.07;stroke:#333;stroke-linecap:butt"/><polyline points="33.24 328.27 645.52 328.27" style="stroke-width:4.27;stroke:red;stroke-linecap:butt"/><polyline points="148.04 331.01 148.04 328.27" style="stroke-width:1.07;stroke:#333;stroke-linecap:butt"/><polyline points="339.38 331.01 339.38 328.27" style="stroke-width:1.07;stroke:#333;stroke-linecap:butt"/><polyline points="530.72 331.01 530.72 328.27" style="stroke-width:1.07;stroke:#333;stroke-linecap:butt"/><text x="148.04" y="339.5" lengthAdjust="spacingAndGlyphs" text-anchor="middle" style="font-size:8.8px;fill:#4d4d4d;font-family:&quot;Arial&quot;" textLength="40.93">affirmation</text><text x="339.38" y="339.5" lengthAdjust="spacingAndGlyphs" text-anchor="middle" style="font-size:8.8px;fill:#4d4d4d;font-family:&quot;Arial&quot;" textLength="20.07">other</text><text x="530.72" y="339.5" lengthAdjust="spacingAndGlyphs" text-anchor="middle" style="font-size:8.8px;fill:#4d4d4d;font-family:&quot;Arial&quot;" textLength="55.79">understanding</text><text x="339.38" y="352.1" lengthAdjust="spacingAndGlyphs" text-anchor="middle" style="font-size:11px;font-family:&quot;Arial&quot;" textLength="56.28">stanceType</text><text lengthAdjust="spacingAndGlyphs" text-anchor="middle" textLength="26.92" transform="translate(13.36,166.88) rotate(-90)" style="font-size:11px;font-family:&quot;Arial&quot;">count</text><rect width="58.04" height="61.32" x="656.48" y="136.22" style="stroke-width:1.07;stroke:none;fill:#fff"/><text x="661.96" y="150.79" style="font-size:11px;font-family:&quot;Arial&quot;" lengthAdjust="spacingAndGlyphs" textLength="47.71">textLower</text><rect width="17.28" height="17.28" x="661.96" y="157.49" style="stroke-width:1.07;stroke:none;fill:#f2f2f2"/><rect width="15.86" height="15.86" x="662.67" y="158.2" style="stroke-width:1.07;stroke:none;stroke-linecap:butt;stroke-linejoin:miter;fill:#f8766d"/><rect width="17.28" height="17.28" x="661.96" y="174.77" style="stroke-width:1.07;stroke:none;fill:#f2f2f2"/><rect width="15.86" height="15.86" x="662.67" y="175.48" style="stroke-width:1.07;stroke:none;stroke-linecap:butt;stroke-linejoin:miter;fill:#00bfc4"/><text x="684.72" y="169.28" style="font-size:8.8px;font-family:&quot;Arial&quot;" lengthAdjust="spacingAndGlyphs" textLength="19.56">mhm</text><text x="684.72" y="186.56" style="font-size:8.8px;font-family:&quot;Arial&quot;" lengthAdjust="spacingAndGlyphs" textLength="19.09">yeah</text></g></svg>