<svg xmlns="http://www.w3.org/2000/svg" xmlns:xlink="http://www.w3.org/1999/xlink" width="960" height="480" class="svglite" viewBox="0 0 720 360"><defs><style type="text/css">.svglite polygon,.svglite polyline,.svglite rect{fill:none;stroke:#000;stroke-linecap:round;stroke-linejoin:round;stroke-miterlimit:10}.svglite text{white-space:pre}</style></defs><rect width="100%" height="100%" style="stroke:none;fill:#fff"/><defs><clipPath id="cpMC4wMHw3MjAuMDB8MC4wMHwzNjAuMDA="><rect width="720" height="360" x="0" y="0"/></clipPath></defs><g clip-path="url(#cpMC4wMHw3MjAuMDB8MC4wMHwzNjAuMDA=)"><rect width="720" height="360" x="0" y="0" style="stroke-width:2.67;stroke:#fff;fill:#fff"/></g><defs><clipPath id="cpODMuMDl8NTMzLjgxfDEzLjcwfDI4MC42OA=="><rect width="450.72" height="266.99" x="83.09" y="13.7"/></clipPath></defs><g clip-path="url(#cpODMuMDl8NTMzLjgxfDEzLjcwfDI4MC42OA==)"><rect width="450.72" height="266.99" x="83.09" y="13.7" style="stroke-width:2.67;stroke:none;fill:#ebebeb"/><polyline points="83.09 237.43 533.81 237.43" style="stroke-width:1.33;stroke:#fff;stroke-linecap:butt"/><polyline points="83.09 175.2 533.81 175.2" style="stroke-width:1.33;stroke:#fff;stroke-linecap:butt"/><polyline points="83.09 112.96 533.81 112.96" style="stroke-width:1.33;stroke:#fff;stroke-linecap:butt"/><polyline points="83.09 50.73 533.81 50.73" style="stroke-width:1.33;stroke:#fff;stroke-linecap:butt"/><polyline points="83.09 268.55 533.81 268.55" style="stroke-width:2.67;stroke:#fff;stroke-linecap:butt"/><polyline points="83.09 206.31 533.81 206.31" style="stroke-width:2.67;stroke:#fff;stroke-linecap:butt"/><polyline points="83.09 144.08 533.81 144.08" style="stroke-width:2.67;stroke:#fff;stroke-linecap:butt"/><polyline points="83.09 81.85 533.81 81.85" style="stroke-width:2.67;stroke:#fff;stroke-linecap:butt"/><polyline points="83.09 19.61 533.81 19.61" style="stroke-width:2.67;stroke:#fff;stroke-linecap:butt"/><polyline points="167.6 280.68 167.6 13.7" style="stroke-width:2.67;stroke:#fff;stroke-linecap:butt"/><polyline points="308.45 280.68 308.45 13.7" style="stroke-width:2.67;stroke:#fff;stroke-linecap:butt"/><polyline points="449.3 280.68 449.3 13.7" style="stroke-width:2.67;stroke:#fff;stroke-linecap:butt"/><rect width="126.76" height="49.79" x="104.22" y="131.63" style="stroke-width:2.67;stroke:none;stroke-linecap:butt;stroke-linejoin:miter;fill:#f8766d"/><rect width="126.76" height="6.22" x="245.07" y="237.43" style="stroke-width:2.67;stroke:none;stroke-linecap:butt;stroke-linejoin:miter;fill:#f8766d"/><rect width="126.76" height="199.15" x="385.92" y="25.83" style="stroke-width:2.67;stroke:none;stroke-linecap:butt;stroke-linejoin:miter;fill:#f8766d"/><rect width="126.76" height="87.13" x="104.22" y="181.42" style="stroke-width:2.67;stroke:none;stroke-linecap:butt;stroke-linejoin:miter;fill:#00bfc4"/><rect width="126.76" height="24.89" x="245.07" y="243.66" style="stroke-width:2.67;stroke:none;stroke-linecap:butt;stroke-linejoin:miter;fill:#00bfc4"/><rect width="126.76" height="43.56" x="385.92" y="224.98" style="stroke-width:2.67;stroke:none;stroke-linecap:butt;stroke-linejoin:miter;fill:#00bfc4"/></g><g clip-path="url(#cpMC4wMHw3MjAuMDB8MC4wMHwzNjAuMDA=)"><text x="70.76" y="276.43" lengthAdjust="spacingAndGlyphs" text-anchor="end" style="font-size:22px;fill:#4d4d4d;font-family:&quot;Arial&quot;" textLength="12.24">0</text><text x="70.76" y="214.19" lengthAdjust="spacingAndGlyphs" text-anchor="end" style="font-size:22px;fill:#4d4d4d;font-family:&quot;Arial&quot;" textLength="24.48">10</text><text x="70.76" y="151.96" lengthAdjust="spacingAndGlyphs" text-anchor="end" style="font-size:22px;fill:#4d4d4d;font-family:&quot;Arial&quot;" textLength="24.48">20</text><text x="70.76" y="89.72" lengthAdjust="spacingAndGlyphs" text-anchor="end" style="font-size:22px;fill:#4d4d4d;font-family:&quot;Arial&quot;" textLength="24.48">30</text><text x="70.76" y="27.49" lengthAdjust="spacingAndGlyphs" text-anchor="end" style="font-size:22px;fill:#4d4d4d;font-family:&quot;Arial&quot;" textLength="24.48">40</text><polyline points="76.24 268.55 83.09 268.55" style="stroke-width:2.67;stroke:#333;stroke-linecap:butt"/><polyline points="76.24 206.31 83.09 206.31" style="stroke-width:2.67;stroke:#333;stroke-linecap:butt"/><polyline points="76.24 144.08 83.09 144.08" style="stroke-width:2.67;stroke:#333;stroke-linecap:butt"/><polyline points="76.24 81.85 83.09 81.85" style="stroke-width:2.67;stroke:#333;stroke-linecap:butt"/><polyline points="76.24 19.61 83.09 19.61" style="stroke-width:2.67;stroke:#333;stroke-linecap:butt"/><polyline points="83.09 280.68 92.25 278.76 101.21 279.51 110.42 276.92 119.66 273.92 128.43 277.23 137.45 277.14 146.66 274.48 155.7 274.23 164.68 274.64 173.93 271.53 182.91 271.97 192.02 270.82 201.06 270.42 209.85 273.32 219.07 270.62 227.94 272.51 236.7 275.85 245.62 277.17 254.87 274.07 264.08 271.43 273.19 270.18 282.27 269.3 291.55 265.93 300.64 264.94 309.75 263.57 318.78 263.37 327.84 262.82 336.73 264.41 345.55 267 354.81 263.85 364.03 261.12 373.14 259.88 382.3 257.91 391.05 261.37 400.05 261.63 409.19 259.92 418.04 262.02 426.95 263.41 435.81 265.41 444.63 268.03 453.59 268.74 462.55 269.46 471.48 270.49 480.3 273.05 489.12 275.7 497.98 277.69 506.97 278.03 515.85 279.79 525.04 277.38 533.81 280.68" style="stroke-width:1.88;stroke:red"/><polyline points="167.6 287.53 167.6 280.68" style="stroke-width:2.67;stroke:#333;stroke-linecap:butt"/><polyline points="308.45 287.53 308.45 280.68" style="stroke-width:2.67;stroke:#333;stroke-linecap:butt"/><polyline points="449.3 287.53 449.3 280.68" style="stroke-width:2.67;stroke:#333;stroke-linecap:butt"/><text x="167.6" y="308.77" lengthAdjust="spacingAndGlyphs" text-anchor="middle" style="font-size:22px;fill:#4d4d4d;font-family:&quot;Arial&quot;" textLength="102.34">affirmation</text><text x="308.45" y="308.77" lengthAdjust="spacingAndGlyphs" text-anchor="middle" style="font-size:22px;fill:#4d4d4d;font-family:&quot;Arial&quot;" textLength="50.16">other</text><text x="449.3" y="308.77" lengthAdjust="spacingAndGlyphs" text-anchor="middle" style="font-size:22px;fill:#4d4d4d;font-family:&quot;Arial&quot;" textLength="139.49">understanding</text><text x="308.45" y="340.25" lengthAdjust="spacingAndGlyphs" text-anchor="middle" style="font-size:27.5px;font-family:&quot;Arial&quot;" textLength="140.64">stanceType</text><text lengthAdjust="spacingAndGlyphs" text-anchor="middle" textLength="67.27" transform="translate(33.38,147.19) rotate(-90)" style="font-size:27.5px;font-family:&quot;Arial&quot;">count</text><polygon points="706.3 70.55 703.35 71.7 700.47 71.25 697.49 72.81 694.51 74.62 691.7 72.63 688.79 72.68 685.82 74.28 682.91 74.43 680.02 74.19 677.03 76.06 674.14 75.8 671.21 76.48 668.29 76.73 665.47 74.98 662.49 76.61 659.64 75.47 656.83 73.46 653.97 72.67 650.98 74.53 648.01 76.12 645.07 76.87 642.14 77.4 639.15 79.43 636.22 80.03 633.28 80.85 630.37 80.97 627.46 81.31 624.6 80.35 621.77 78.79 618.78 80.69 615.8 82.33 612.87 83.07 609.91 84.26 607.1 82.18 604.21 82.02 601.26 83.05 598.42 81.79 595.55 80.95 592.7 79.75 589.87 78.17 586.99 77.74 584.11 77.31 581.24 76.69 578.41 75.15 575.58 73.55 572.73 72.35 569.84 72.14 566.98 71.08 564.01 72.54 561.2 70.55 561.2 70.55 562.36 73.67 561.91 76.71 563.47 79.85 565.28 83 563.28 85.97 563.34 89.04 564.94 92.18 565.09 95.25 564.84 98.31 566.72 101.46 566.45 104.51 567.14 107.61 567.39 110.68 565.64 113.67 567.27 116.81 566.13 119.82 564.12 122.8 563.32 125.83 565.19 128.98 566.78 132.12 567.53 135.22 568.06 138.31 570.09 141.47 570.69 144.56 571.51 147.66 571.63 150.73 571.97 153.82 571.01 156.84 569.44 159.83 571.34 162.98 572.99 166.13 573.73 169.23 574.92 172.35 572.84 175.32 572.68 178.38 573.71 181.49 572.44 184.5 571.61 187.52 570.4 190.53 568.82 193.53 568.4 196.57 567.96 199.62 567.34 202.66 565.8 205.65 564.21 208.65 563.01 211.66 562.8 214.71 561.74 217.73 563.2 220.86 561.2 223.84 561.2 223.84 564.16 222.68 567.04 223.13 570.01 221.57 573 219.76 575.81 221.76 578.71 221.7 581.69 220.1 584.6 219.95 587.49 220.2 590.48 218.32 593.37 218.59 596.3 217.9 599.21 217.66 602.03 219.4 605.01 217.77 607.86 218.92 610.67 220.92 613.54 221.72 616.52 219.85 619.5 218.27 622.43 217.51 625.36 216.98 628.36 214.95 631.28 214.35 634.22 213.53 637.13 213.41 640.05 213.08 642.91 214.04 645.74 215.6 648.73 213.7 651.7 212.05 654.64 211.31 657.6 210.12 660.4 212.2 663.3 212.36 666.25 211.33 669.09 212.6 671.95 213.43 674.8 214.64 677.63 216.22 680.51 216.65 683.4 217.08 686.27 217.7 689.1 219.24 691.93 220.83 694.78 222.03 697.67 222.24 700.52 223.3 703.49 221.85 706.3 223.84 706.3 223.84 705.14 220.72 705.59 217.67 704.03 214.54 702.23 211.39 704.22 208.41 704.17 205.34 702.57 202.21 702.41 199.13 702.66 196.08 700.79 192.93 701.05 189.87 700.36 186.78 700.12 183.7 701.87 180.71 700.24 177.57 701.38 174.56 703.39 171.58 704.18 168.56 702.32 165.4 700.73 162.27 699.98 159.17 699.45 156.08 697.41 152.92 696.82 149.82 696 146.72 695.87 143.65 695.54 140.57 696.5 137.55 698.06 134.55 696.16 131.4 694.52 128.26 693.77 125.16 692.59 122.04 694.67 119.07 694.83 116.01 693.79 112.9 695.06 109.89 695.9 106.86 697.1 103.85 698.68 100.86 699.11 97.81 699.54 94.76 700.16 91.73 701.7 88.73 703.3 85.74 704.5 82.73 704.71 79.67 705.76 76.65 704.31 73.52 706.3 70.55" style="stroke-width:1.88;stroke:none;stroke-linecap:butt;stroke-linejoin:miter;fill:#fff"/><polyline points="706.3 70.55 703.35 71.7 700.47 71.25 697.49 72.81 694.51 74.62 691.7 72.63 688.79 72.68 685.82 74.28 682.91 74.43 680.02 74.19 677.03 76.06 674.14 75.8 671.21 76.48 668.29 76.73 665.47 74.98 662.49 76.61 659.64 75.47 656.83 73.46 653.97 72.67 650.98 74.53 648.01 76.12 645.07 76.87 642.14 77.4 639.15 79.43 636.22 80.03 633.28 80.85 630.37 80.97 627.46 81.31 624.6 80.35 621.77 78.79 618.78 80.69 615.8 82.33 612.87 83.07 609.91 84.26 607.1 82.18 604.21 82.02 601.26 83.05 598.42 81.79 595.55 80.95 592.7 79.75 589.87 78.17 586.99 77.74 584.11 77.31 581.24 76.69 578.41 75.15 575.58 73.55 572.73 72.35 569.84 72.14 566.98 71.08 564.01 72.54 561.2 70.55" style="stroke-width:1.88;stroke-linecap:butt;stroke-linejoin:miter"/><polyline points="561.2 70.55 562.36 73.67 561.91 76.71 563.47 79.85 565.28 83 563.28 85.97 563.34 89.04 564.94 92.18 565.09 95.25 564.84 98.31 566.72 101.46 566.45 104.51 567.14 107.61 567.39 110.68 565.64 113.67 567.27 116.81 566.13 119.82 564.12 122.8 563.32 125.83 565.19 128.98 566.78 132.12 567.53 135.22 568.06 138.31 570.09 141.47 570.69 144.56 571.51 147.66 571.63 150.73 571.97 153.82 571.01 156.84 569.44 159.83 571.34 162.98 572.99 166.13 573.73 169.23 574.92 172.35 572.84 175.32 572.68 178.38 573.71 181.49 572.44 184.5 571.61 187.52 570.4 190.53 568.82 193.53 568.4 196.57 567.96 199.62 567.34 202.66 565.8 205.65 564.21 208.65 563.01 211.66 562.8 214.71 561.74 217.73 563.2 220.86 561.2 223.84" style="stroke-width:1.88;stroke-linecap:butt;stroke-linejoin:miter"/><polyline points="561.2 223.84 564.16 222.68 567.04 223.13 570.01 221.57 573 219.76 575.81 221.76 578.71 221.7 581.69 220.1 584.6 219.95 587.49 220.2 590.48 218.32 593.37 218.59 596.3 217.9 599.21 217.66 602.03 219.4 605.01 217.77 607.86 218.92 610.67 220.92 613.54 221.72 616.52 219.85 619.5 218.27 622.43 217.51 625.36 216.98 628.36 214.95 631.28 214.35 634.22 213.53 637.13 213.41 640.05 213.08 642.91 214.04 645.74 215.6 648.73 213.7 651.7 212.05 654.64 211.31 657.6 210.12 660.4 212.2 663.3 212.36 666.25 211.33 669.09 212.6 671.95 213.43 674.8 214.64 677.63 216.22 680.51 216.65 683.4 217.08 686.27 217.7 689.1 219.24 691.93 220.83 694.78 222.03 697.67 222.24 700.52 223.3 703.49 221.85 706.3 223.84" style="stroke-width:1.88;stroke-linecap:butt;stroke-linejoin:miter"/><polyline points="706.3 223.84 705.14 220.72 705.59 217.67 704.03 214.54 702.23 211.39 704.22 208.41 704.17 205.34 702.57 202.21 702.41 199.13 702.66 196.08 700.79 192.93 701.05 189.87 700.36 186.78 700.12 183.7 701.87 180.71 700.24 177.57 701.38 174.56 703.39 171.58 704.18 168.56 702.32 165.4 700.73 162.27 699.98 159.17 699.45 156.08 697.41 152.92 696.82 149.82 696 146.72 695.87 143.65 695.54 140.57 696.5 137.55 698.06 134.55 696.16 131.4 694.52 128.26 693.77 125.16 692.59 122.04 694.67 119.07 694.83 116.01 693.79 112.9 695.06 109.89 695.9 106.86 697.1 103.85 698.68 100.86 699.11 97.81 699.54 94.76 700.16 91.73 701.7 88.73 703.3 85.74 704.5 82.73 704.71 79.67 705.76 76.65 704.31 73.52 706.3 70.55" style="stroke-width:1.88;stroke-linecap:butt;stroke-linejoin:miter"/><text x="574.9" y="106.98" style="font-size:27.5px;font-family:&quot;Arial&quot;" lengthAdjust="spacingAndGlyphs" textLength="119.22">textLower</text><rect width="43.2" height="43.2" x="574.9" y="123.74" style="stroke-width:2.67;stroke:none;fill:#f2f2f2"/><rect width="39.66" height="39.66" x="576.67" y="125.51" style="stroke-width:2.67;stroke:none;stroke-linecap:butt;stroke-linejoin:miter;fill:#f8766d"/><rect width="43.2" height="43.2" x="574.9" y="166.94" style="stroke-width:2.67;stroke:none;fill:#f2f2f2"/><rect width="39.66" height="39.66" x="576.67" y="168.71" style="stroke-width:2.67;stroke:none;stroke-linecap:butt;stroke-linejoin:miter;fill:#00bfc4"/><text x="631.8" y="153.22" style="font-size:22px;font-family:&quot;Arial&quot;" lengthAdjust="spacingAndGlyphs" textLength="48.9">mhm</text><text x="631.8" y="196.42" style="font-size:22px;font-family:&quot;Arial&quot;" lengthAdjust="spacingAndGlyphs" textLength="47.72">yeah</text></g></svg>