<svg xmlns="http://www.w3.org/2000/svg" xmlns:xlink="http://www.w3.org/1999/xlink" width="960" height="480" class="svglite" viewBox="0 0 720 360"><defs><style type="text/css">.svglite polyline,.svglite rect{fill:none;stroke:#000;stroke-linecap:round;stroke-linejoin:round;stroke-miterlimit:10}.svglite text{white-space:pre}</style></defs><rect width="100%" height="100%" style="stroke:none;fill:#fff"/><defs><clipPath id="cpMC4wMHw3MjAuMDB8MC4wMHwzNjAuMDA="><rect width="720" height="360" x="0" y="0"/></clipPath></defs><g clip-path="url(#cpMC4wMHw3MjAuMDB8MC4wMHwzNjAuMDA=)"><rect width="720" height="360" x="0" y="0" style="stroke-width:2.67;stroke:#fff;fill:#fff"/></g><defs><clipPath id="cpODMuMDl8NzA2LjMwfDEzLjcwfDE4Mi42OQ=="><rect width="623.21" height="168.99" x="83.09" y="13.7"/></clipPath></defs><g clip-path="url(#cpODMuMDl8NzA2LjMwfDEzLjcwfDE4Mi42OQ==)"><rect width="623.21" height="168.99" x="83.09" y="13.7" style="stroke-width:2.67;stroke:none;fill:#ebebeb"/><polyline points="83.09 155.31 706.3 155.31" style="stroke-width:1.33;stroke:#fff;stroke-linecap:butt"/><polyline points="83.09 115.92 706.3 115.92" style="stroke-width:1.33;stroke:#fff;stroke-linecap:butt"/><polyline points="83.09 76.53 706.3 76.53" style="stroke-width:1.33;stroke:#fff;stroke-linecap:butt"/><polyline points="83.09 37.14 706.3 37.14" style="stroke-width:1.33;stroke:#fff;stroke-linecap:butt"/><polyline points="83.09 175.01 706.3 175.01" style="stroke-width:2.67;stroke:#fff;stroke-linecap:butt"/><polyline points="83.09 135.62 706.3 135.62" style="stroke-width:2.67;stroke:#fff;stroke-linecap:butt"/><polyline points="83.09 96.22 706.3 96.22" style="stroke-width:2.67;stroke:#fff;stroke-linecap:butt"/><polyline points="83.09 56.83 706.3 56.83" style="stroke-width:2.67;stroke:#fff;stroke-linecap:butt"/><polyline points="83.09 17.44 706.3 17.44" style="stroke-width:2.67;stroke:#fff;stroke-linecap:butt"/><polyline points="199.94 182.69 199.94 13.7" style="stroke-width:2.67;stroke:#fff;stroke-linecap:butt"/><polyline points="394.7 182.69 394.7 13.7" style="stroke-width:2.67;stroke:#fff;stroke-linecap:butt"/><polyline points="589.45 182.69 589.45 13.7" style="stroke-width:2.67;stroke:#fff;stroke-linecap:butt"/><rect width="175.28" height="31.51" x="112.3" y="88.35" style="stroke-width:2.67;stroke:none;stroke-linecap:butt;stroke-linejoin:miter;fill:#f8766d"/><rect width="175.28" height="3.94" x="307.06" y="155.31" style="stroke-width:2.67;stroke:none;stroke-linecap:butt;stroke-linejoin:miter;fill:#f8766d"/><rect width="175.28" height="126.05" x="501.81" y="21.38" style="stroke-width:2.67;stroke:none;stroke-linecap:butt;stroke-linejoin:miter;fill:#f8766d"/><rect width="175.28" height="55.15" x="112.3" y="119.86" style="stroke-width:2.67;stroke:none;stroke-linecap:butt;stroke-linejoin:miter;fill:#00bfc4"/><rect width="175.28" height="15.76" x="307.06" y="159.25" style="stroke-width:2.67;stroke:none;stroke-linecap:butt;stroke-linejoin:miter;fill:#00bfc4"/><rect width="175.28" height="27.57" x="501.81" y="147.43" style="stroke-width:2.67;stroke:none;stroke-linecap:butt;stroke-linejoin:miter;fill:#00bfc4"/></g><g clip-path="url(#cpMC4wMHw3MjAuMDB8MC4wMHwzNjAuMDA=)"><text x="70.76" y="182.89" lengthAdjust="spacingAndGlyphs" text-anchor="end" style="font-size:22px;fill:#4d4d4d;font-family:&quot;Arial&quot;" textLength="12.24">0</text><text x="70.76" y="143.49" lengthAdjust="spacingAndGlyphs" text-anchor="end" style="font-size:22px;fill:#4d4d4d;font-family:&quot;Arial&quot;" textLength="24.48">10</text><text x="70.76" y="104.1" lengthAdjust="spacingAndGlyphs" text-anchor="end" style="font-size:22px;fill:#4d4d4d;font-family:&quot;Arial&quot;" textLength="24.48">20</text><text x="70.76" y="64.71" lengthAdjust="spacingAndGlyphs" text-anchor="end" style="font-size:22px;fill:#4d4d4d;font-family:&quot;Arial&quot;" textLength="24.48">30</text><text x="70.76" y="25.32" lengthAdjust="spacingAndGlyphs" text-anchor="end" style="font-size:22px;fill:#4d4d4d;font-family:&quot;Arial&quot;" textLength="24.48">40</text><polyline points="76.24 175.01 83.09 175.01" style="stroke-width:2.67;stroke:#333;stroke-linecap:butt"/><polyline points="76.24 135.62 83.09 135.62" style="stroke-width:2.67;stroke:#333;stroke-linecap:butt"/><polyline points="76.24 96.22 83.09 96.22" style="stroke-width:2.67;stroke:#333;stroke-linecap:butt"/><polyline points="76.24 56.83 83.09 56.83" style="stroke-width:2.67;stroke:#333;stroke-linecap:butt"/><polyline points="76.24 17.44 83.09 17.44" style="stroke-width:2.67;stroke:#333;stroke-linecap:butt"/><polyline points="199.94 189.54 199.94 182.69" style="stroke-width:2.67;stroke:#333;stroke-linecap:butt"/><polyline points="394.7 189.54 394.7 182.69" style="stroke-width:2.67;stroke:#333;stroke-linecap:butt"/><polyline points="589.45 189.54 589.45 182.69" style="stroke-width:2.67;stroke:#333;stroke-linecap:butt"/><text x="199.94" y="210.77" lengthAdjust="spacingAndGlyphs" text-anchor="middle" style="font-size:22px;fill:#4d4d4d;font-family:&quot;Arial&quot;" textLength="102.34">affirmation</text><text x="394.7" y="210.77" lengthAdjust="spacingAndGlyphs" text-anchor="middle" style="font-size:22px;fill:#4d4d4d;font-family:&quot;Arial&quot;" textLength="50.16">other</text><text x="589.45" y="210.77" lengthAdjust="spacingAndGlyphs" text-anchor="middle" style="font-size:22px;fill:#4d4d4d;font-family:&quot;Arial&quot;" textLength="139.49">understanding</text><text x="394.7" y="242.26" lengthAdjust="spacingAndGlyphs" text-anchor="middle" style="font-size:27.5px;font-family:&quot;Arial&quot;" textLength="140.64">stanceType</text><text lengthAdjust="spacingAndGlyphs" text-anchor="middle" textLength="67.27" transform="translate(33.38,98.19) rotate(-90)" style="font-size:27.5px;font-family:&quot;Arial&quot;">count</text><rect width="384.62" height="70.6" x="202.39" y="275.7" style="stroke-width:2.67;stroke:none;fill:#fff"/><text x="216.09" y="320.85" style="font-size:27.5px;font-family:&quot;Arial&quot;" lengthAdjust="spacingAndGlyphs" textLength="119.22">textLower</text><rect width="43.2" height="43.2" x="347.49" y="289.4" style="stroke-width:2.67;stroke:none;fill:#f2f2f2"/><rect width="39.66" height="39.66" x="349.26" y="291.17" style="stroke-width:2.67;stroke:none;stroke-linecap:butt;stroke-linejoin:miter;fill:#f8766d"/><rect width="43.2" height="43.2" x="468.08" y="289.4" style="stroke-width:2.67;stroke:none;fill:#f2f2f2"/><rect width="39.66" height="39.66" x="469.85" y="291.17" style="stroke-width:2.67;stroke:none;stroke-linecap:butt;stroke-linejoin:miter;fill:#00bfc4"/><text x="404.38" y="318.88" style="font-size:22px;font-family:&quot;Arial&quot;" lengthAdjust="spacingAndGlyphs" textLength="48.9">mhm</text><text x="524.98" y="318.88" style="font-size:22px;font-family:&quot;Arial&quot;" lengthAdjust="spacingAndGlyphs" textLength="47.72">yeah</text></g></svg>